<?xml version="1.0" encoding="utf-8"?>
<!-- Generator: Adobe Illustrator 25.2.1, SVG Export Plug-In . SVG Version: 6.00 Build 0)  -->
<svg version="1.1" id="bike" xmlns="http://www.w3.org/2000/svg" xmlns:xlink="http://www.w3.org/1999/xlink" x="0px" y="0px"
	 viewBox="0 0 3349.7 2776.2" style="enable-background:new 0 0 3349.7 2776.2;" xml:space="preserve">
<style type="text/css">
	.st0{fill:#666666;}
	.st1{fill:#404040;}
	.st2{fill:#545454;}
	.st3{fill:#0E0E0E;}
	.st4{fill:#595959;}
	.st5{fill:url(#SVGID_1_);}
	.st6{opacity:0.1;}
	.st7{fill:#4F4F4F;}
	.st8{fill:#808080;}
	.st9{fill:#3D3D3D;}
	.st10{fill:#262626;}
	.st11{fill:none;stroke:#0E0E0E;stroke-width:1.5264;stroke-linecap:round;stroke-miterlimit:10;}
	.st12{fill:url(#SVGID_2_);}
	.st13{fill:#8C8C8C;}
	.st14{fill:url(#SVGID_3_);}
	.st15{fill:url(#SVGID_4_);}
	.st16{fill:url(#SVGID_5_);}
	.st17{fill:url(#SVGID_6_);}
	.st18{fill:#636363;}
	.st19{fill:#333333;}
	.st20{fill:url(#SVGID_7_);}
	.st21{fill:#4D4D4D;}
	.st22{fill:url(#SVGID_8_);}
	.st23{fill:#363636;}
</style>
<g>
	<g>
		<g>
			<path class="st0" d="M1264,1373v18.1c0,4.2,3.3,7.5,7.4,7.6l115.5,3.5c1.4,0,2.9-0.1,4.2-0.3l58-10.8c3.6-0.7,6.2-3.8,6.2-7.5
				v-14.9c0-4.2-3.4-7.6-7.6-7.6l-99.8,0.2l-76.6,4.1C1267.2,1365.5,1264,1368.9,1264,1373z"/>
			<polygon class="st1" points="1347.8,1361.2 1271.2,1365.3 1387.3,1365.5 1447.7,1361.1 			"/>
		</g>
	</g>
	<g>
		<path class="st2" d="M1328.7,1762.4c-10.8,0-19.6-8.8-19.6-19.6v-351.5c0-10.8,8.8-19.6,19.6-19.6c10.8,0,19.6,8.8,19.6,19.6
			v351.5C1348.4,1753.6,1339.6,1762.4,1328.7,1762.4z"/>
		<path class="st2" d="M1328.7,1372.2c10.5,0,19.1,8.5,19.1,19.1v351.5c0,10.5-8.5,19.1-19.1,19.1c-10.5,0-19.1-8.5-19.1-19.1
			v-351.5C1309.7,1380.7,1318.2,1372.2,1328.7,1372.2 M1328.7,1371.1c-11.1,0-20.2,9.1-20.2,20.2v351.5c0,11.1,9.1,20.2,20.2,20.2
			c11.1,0,20.2-9.1,20.2-20.2v-351.5C1348.9,1380.2,1339.9,1371.1,1328.7,1371.1L1328.7,1371.1z"/>
	</g>
</g>
<path class="st3" d="M897.8,523c0,0-32.7-2.7-82-9c-49.3-6.2-84.6-8.2-84.6-8.2c-8.3-0.8-35.4-63.4-35.4-63.4l557-56.9l6.6,26.1
	c0.7,9.7-5,14.1-12.2,16.3c0,0-202.9,67.9-240.4,78.8c-37.5,10.9-83.9,17.2-89.2,17.4C912.2,524.3,900,523.3,897.8,523z"/>
<g>
	<path class="st4" d="M1279.6,1829.5L631,1658.9c-21.9-8.7-39.1-26.4-47.1-48.6c-8-22.2-6.1-46.8,5.2-67.5l395.4-832l60.9,33.3
		l-395.4,832c-2.5,4.5-1.5,8.6-0.8,10.7c0.8,2.1,2.7,5.8,7.5,7.7l658.2,174.3L1279.6,1829.5z"/>
</g>
<g>
	
		<linearGradient id="SVGID_1_" gradientUnits="userSpaceOnUse" x1="2400.7983" y1="1520.6073" x2="2483.0286" y2="1547.0083" gradientTransform="matrix(1 0 0 -1 0 2776)">
		<stop  offset="0" style="stop-color:#1A1A1A"/>
		<stop  offset="0.245" style="stop-color:#4D4D4D"/>
		<stop  offset="0.6355" style="stop-color:#999999"/>
		<stop  offset="1" style="stop-color:#4D4D4D"/>
	</linearGradient>
	<path class="st5" d="M2598.2,1780c-16.8,0-32.3-10.7-37.8-27.4l-312.7-996.1c-6.8-20.9,4.6-43.4,25.5-50.2
		c20.9-6.8,43.4,4.6,50.2,25.5l312.7,996.1c6.8,20.9-4.6,43.4-25.5,50.2C2606.5,1779.4,2602.3,1780,2598.2,1780z"/>
	<g class="st6">
		<path d="M2598.2,1780c-16.8,0-32.3-10.7-37.8-27.4l-312.7-996.1c-6.8-20.9,4.6-43.4,25.5-50.2c20.9-6.8,43.4,4.6,50.2,25.5
			l312.7,996.1c6.8,20.9-4.6,43.4-25.5,50.2C2606.5,1779.4,2602.3,1780,2598.2,1780z"/>
	</g>
</g>
<g>
	<g>
		<path class="st7" d="M2486.9,898.2c16.2,0,32.6,0.7,49.1,2.1c390.9,33.2,707.8,452.7,707.8,937c0,463.8-290.7,818.9-658.8,818.9
			c-16.2,0-32.6-0.7-49.1-2.1c-390.9-33.2-707.8-452.7-707.8-937C1828.1,1253.2,2118.8,898.2,2486.9,898.2 M2486.9,880.5v17.7V880.5
			L2486.9,880.5c-184,0-354.9,86-481.1,242c-125.9,155.7-195.3,366.8-195.3,594.5c0,238,74.9,468.3,210.9,648.3
			c66.4,87.8,143.7,159,229.9,211.4c89.6,54.6,184.9,86.5,283.2,94.8c16.8,1.4,33.9,2.2,50.6,2.2c184,0,354.9-86,481.1-242
			c125.9-155.7,195.3-366.8,195.3-594.5c0-238-74.9-468.3-210.9-648.3c-66.4-87.8-143.7-159-229.9-211.4
			c-89.6-54.6-184.9-86.5-283.2-94.8C2520.6,881.2,2503.6,880.5,2486.9,880.5L2486.9,880.5z"/>
		<path class="st7" d="M2486.9,946.8c14.9,0,30,0.7,45,1.9c175.1,14.9,340.6,114.3,465.8,280.2c127.3,168.6,197.5,384.6,197.5,608.3
			c0,212.5-64.1,408.8-180.5,552.8c-113.4,140.2-266,217.5-429.6,217.5c-14.9,0-30-0.7-45-1.9c-175.1-14.9-340.6-114.3-465.8-280.2
			c-127.3-168.6-197.5-384.6-197.5-608.3c0-212.5,64.1-408.8,180.5-552.8C2170.7,1024,2323.3,946.8,2486.9,946.8L2486.9,946.8
			 M2486.9,898.2c-368,0-658.8,355-658.8,818.9c0,484.3,316.9,903.8,707.8,937c16.5,1.4,32.9,2.1,49.1,2.1
			c368,0,658.8-355,658.8-818.9c0-484.3-316.9-903.8-707.8-937C2519.4,898.9,2503.1,898.2,2486.9,898.2L2486.9,898.2z"/>
	</g>
	<g>
		<g>
			<path class="st3" d="M2406.8,2604.2c-0.1,0-0.3,0-0.4,0c-2.4-0.3-4.2-2.4-3.9-4.9l75.7-729.2c0.3-2.4,2.4-4.2,4.9-3.9
				c2.4,0.3,4.2,2.4,3.9,4.9l-75.7,729.2C2410.9,2602.4,2409,2604.2,2406.8,2604.2z"/>
		</g>
		<g>
			<path class="st3" d="M2221.9,2509.4c-0.5,0-1-0.1-1.5-0.3c-2.3-0.8-3.5-3.4-2.7-5.7l232.1-638c0.8-2.3,3.4-3.5,5.7-2.7
				c2.3,0.8,3.5,3.4,2.7,5.7l-232.1,638C2225.4,2508.3,2223.7,2509.4,2221.9,2509.4z"/>
		</g>
		<g>
			<path class="st3" d="M2064.6,2352c-0.9,0-1.9-0.3-2.7-0.9c-1.9-1.5-2.3-4.2-0.9-6.2l371.7-495.1c1.5-1.9,4.2-2.3,6.2-0.9
				c1.9,1.5,2.3,4.2,0.9,6.2l-371.7,495.1C2067.2,2351.4,2065.9,2352,2064.6,2352z"/>
		</g>
		<g>
			<path class="st3" d="M1959,2184.9c-1.4,0-2.7-0.6-3.5-1.8c-1.5-1.9-1.1-4.7,0.9-6.2l464-346.1c1.9-1.5,4.7-1.1,6.2,0.9
				c1.5,1.9,1.1,4.7-0.9,6.2l-464,346.1C1960.8,2184.6,1959.9,2184.9,1959,2184.9z"/>
		</g>
		<g>
			<path class="st3" d="M1892.2,1994.9c-1.9,0-3.6-1.1-4.2-3c-0.8-2.3,0.4-4.8,2.8-5.6l516.5-174.8c2.3-0.8,4.8,0.4,5.6,2.8
				c0.8,2.3-0.4,4.8-2.8,5.6l-516.5,174.8C1893.2,1994.8,1892.7,1994.9,1892.2,1994.9z"/>
		</g>
		<g>
			<path class="st3" d="M1859,1808c-2.4,0-4.4-1.9-4.4-4.3c0-2.4,1.9-4.5,4.3-4.5l547.8-13.2c2.3-0.2,4.5,1.9,4.5,4.3
				c0,2.4-1.9,4.5-4.3,4.5L1859,1808C1859.1,1808,1859,1808,1859,1808z"/>
		</g>
		<g>
			<path class="st3" d="M2405.4,1769.6c-0.4,0-0.8,0-1.2-0.2l-546.4-155.5c-2.3-0.7-3.7-3.1-3.1-5.5c0.7-2.3,3.1-3.7,5.5-3.1
				l546.4,155.5c2.3,0.7,3.7,3.1,3.1,5.5C2409,1768.4,2407.3,1769.6,2405.4,1769.6z"/>
		</g>
		<g>
			<path class="st3" d="M2411.2,1746.9c-0.8,0-1.6-0.2-2.4-0.7l-519-329.7c-2.1-1.3-2.7-4-1.4-6.1s4-2.7,6.1-1.4l519,329.7
				c2.1,1.3,2.7,4,1.4,6.1C2414.1,1746.2,2412.7,1746.9,2411.2,1746.9z"/>
		</g>
		<g>
			<path class="st3" d="M2423,1727.7c-1.2,0-2.4-0.5-3.3-1.5l-438.2-489.7c-1.6-1.8-1.5-4.6,0.4-6.2c1.8-1.6,4.6-1.5,6.2,0.4
				l438.2,489.7c1.6,1.8,1.5,4.6-0.4,6.2C2425.1,1727.3,2424.1,1727.7,2423,1727.7z"/>
		</g>
		<g>
			<path class="st3" d="M2436.3,1714.5c-1.6,0-3.2-0.9-4-2.5l-305.8-635c-1.1-2.2-0.1-4.9,2.1-5.9c2.2-1.1,4.9-0.1,5.9,2.1
				l305.8,635c1.1,2.2,0.1,4.9-2.1,5.9C2437.6,1714.3,2436.9,1714.5,2436.3,1714.5z"/>
		</g>
	</g>
	<g>
		<path class="st3" d="M2454,1702.1c-2.2,0-4.1-1.6-4.4-3.8l-105.2-735.9c-0.4-2.4,1.3-4.6,3.8-5c2.4-0.3,4.6,1.3,5,3.8l105.2,735.9
			c0.4,2.4-1.3,4.6-3.8,5C2454.4,1702.1,2454.1,1702.1,2454,1702.1z"/>
	</g>
	<g>
		<g>
			<path class="st8" d="M2604.3,1845.7c-1.4,0-2.9,0-4.3-0.2c-36.1-3.1-65.2-59.9-65.2-104.8c0-37.7,20.5-59.3,56.2-59.3
				c2.5,0,5,0.1,7.6,0.3c35.9,3.1,65.2,42.6,65.2,88.1c0,21.1-6.3,40.5-17.8,54.8C2634.9,1838.2,2620.1,1845.7,2604.3,1845.7
				L2604.3,1845.7z"/>
			<path class="st3" d="M2591,1689.7c2.3,0,4.6,0.1,6.9,0.3c31.2,2.7,57.5,39.2,57.5,79.8c0,37.9-22.4,67.6-51.1,67.6
				c-1.2,0-2.4,0-3.6-0.2c-27.9-2.4-57.5-52-57.5-96.5C2543.1,1698.6,2569.1,1689.7,2591,1689.7 M2591,1673
				c-36.3,0-64.6,21.3-64.6,67.7c0,49.8,32.6,109.7,72.9,113.2c1.7,0.1,3.4,0.2,5,0.2c37.9,0,67.8-36.5,67.8-84.3
				c0-49.8-32.6-93-72.9-96.4C2596.4,1673.2,2593.6,1673,2591,1673L2591,1673z"/>
		</g>
	</g>
	<path class="st9" d="M2454.4,1693.6c0,0,44.1-0.8,78.5-3.4c25.8-2,20.2-2.7,49.1-8.8c23-4.8,68.2,23.2,76.4,71
		c8.2,47.8-14.7,81.1-33.9,90c-19.2,8.8-42.8,7.2-70.9,15.6c-35.8,10.7-56.6,19.4-56.6,19.4L2454.4,1693.6z"/>
	<path class="st3" d="M2536,801.8c-449.4-38.2-813.7,372.4-813.7,916.9s364.3,1016.9,813.7,1055c449.4,38.2,813.7-372.4,813.7-916.9
		S2985.4,840,2536,801.8z M2514.2,2635.9c-378.9-32.1-686.1-438.8-686.1-908.1s307.2-823.8,686.1-791.7
		c378.9,32.1,686.1,438.8,686.1,908.1C3200.3,2313.6,2893.1,2668,2514.2,2635.9z"/>
	<g>
		<g>
			<path class="st3" d="M2476.2,1706.6c-0.3,0-0.5,0-0.8,0c-2.7-0.4-4.6-3-4.2-5.7l123.1-797.6c0.4-2.7,3-4.6,5.7-4.2
				c2.7,0.4,4.6,3,4.2,5.7l-123.1,797.6C2480.7,1704.8,2478.6,1706.6,2476.2,1706.6z"/>
		</g>
		<g>
			<path class="st3" d="M2498.7,1708.8c-0.7,0-1.3-0.1-1.9-0.4c-2.5-1.1-3.7-4-2.6-6.5l323-754c1.1-2.5,4-3.7,6.5-2.6
				c2.5,1.1,3.7,4,2.6,6.5l-323,754C2502.4,1707.7,2500.6,1708.8,2498.7,1708.8z"/>
		</g>
		<g>
			<path class="st3" d="M2511.9,1721.9c-1.1,0-2.3-0.4-3.2-1.1c-2.1-1.8-2.4-4.9-0.6-7l502.2-599.1c1.8-2.1,4.9-2.4,7-0.6
				c2.1,1.8,2.4,4.9,0.6,7l-502.2,599.1C2514.8,1721.3,2513.3,1721.9,2511.9,1721.9z"/>
		</g>
		<g>
			<path class="st3" d="M2525,1736.1c-1.6,0-3.2-0.8-4.1-2.2c-1.5-2.3-0.9-5.4,1.4-6.9l646.5-434.5c2.3-1.5,5.4-0.9,6.9,1.4
				c1.5,2.3,0.9,5.4-1.4,6.9l-646.5,434.5C2526.9,1735.9,2525.9,1736.1,2525,1736.1z"/>
		</g>
		<g>
			<path class="st3" d="M2535.9,1753.3c-2.2,0-4.2-1.4-4.8-3.6c-0.8-2.7,0.8-5.4,3.4-6.1l701.3-202.9c2.7-0.8,5.4,0.8,6.1,3.4
				s-0.8,5.4-3.4,6.1l-701.3,202.9C2536.9,1753.2,2536.4,1753.3,2535.9,1753.3z"/>
		</g>
		<g>
			<path class="st3" d="M3264.3,1773.3h-722.3c-2.7,0-5-2.2-5-5c0-2.8,2.2-5,5-5h722.3c2.7,0,5,2.2,5,5
				C3269.3,1771.1,3267,1773.3,3264.3,1773.3z"/>
		</g>
		<g>
			<path class="st3" d="M3243.8,1995.4c-0.4,0-0.9,0-1.4-0.2l-701.9-200.1c-2.7-0.8-4.2-3.5-3.4-6.1c0.8-2.7,3.5-4.2,6.1-3.4
				l701.9,200.1c2.7,0.8,4.2,3.5,3.4,6.1C3248,1994,3246,1995.4,3243.8,1995.4z"/>
		</g>
		<g>
			<path class="st3" d="M3195.7,2217.6c-0.9,0-1.8-0.2-2.6-0.7L2535.5,1817c-2.3-1.4-3.1-4.5-1.7-6.9c1.4-2.3,4.5-3.1,6.9-1.7
				l657.6,399.9c2.3,1.4,3.1,4.5,1.7,6.9C3199,2216.7,3197.4,2217.6,3195.7,2217.6z"/>
		</g>
		<g>
			<path class="st3" d="M3025.9,2386.5c-1.4,0-2.7-0.6-3.7-1.6l-494.8-547.2c-1.9-2-1.7-5.2,0.4-7c2-1.9,5.2-1.7,7,0.4l494.8,547.2
				c1.9,2,1.7,5.2-0.4,7C3028.3,2386,3027.1,2386.5,3025.9,2386.5z"/>
		</g>
		<g>
			<path class="st3" d="M2858,2540.7c-1.8,0-3.6-1-4.5-2.7l-338.2-680.2c-1.2-2.5-0.2-5.4,2.3-6.7c2.5-1.2,5.4-0.2,6.7,2.3
				l338.2,680.2c1.2,2.5,0.2,5.4-2.3,6.7C2859.5,2540.5,2858.7,2540.7,2858,2540.7z"/>
		</g>
		<g>
			<path class="st3" d="M2625.7,2613.6c-2.4,0-4.5-1.7-4.9-4.2l-123.1-741.6c-0.4-2.7,1.4-5.3,4.1-5.7c2.7-0.4,5.3,1.4,5.7,4.1
				l123.1,741.6c0.4,2.7-1.4,5.3-4.1,5.7C2626.3,2613.6,2626,2613.6,2625.7,2613.6z"/>
		</g>
	</g>
	<g>
		<path class="st9" d="M2478.9,1872.6c-1.5,0-3.1,0-4.6-0.2c-38-3.2-68.9-45-68.9-93.2c0-45,27.6-80.3,62.8-80.3
			c1.5,0,3.1,0,4.6,0.2c38,3.2,68.9,45,68.9,93.2c0,22.3-6.7,42.9-18.8,57.9C2511.3,1864.7,2495.7,1872.6,2478.9,1872.6
			L2478.9,1872.6z"/>
		<path class="st3" d="M2468.2,1707.8c1.3,0,2.6,0,3.8,0.2c33,2.8,60.8,41.4,60.8,84.3c0,40.1-23.7,71.4-54,71.4
			c-1.3,0-2.6,0-3.8-0.2c-33-2.8-60.8-41.4-60.8-84.3C2414.3,1739.2,2438,1707.8,2468.2,1707.8 M2468.2,1690.1
			c-40.1,0-71.7,38.6-71.7,89.1c0,52.7,34.5,98.3,77,102c1.8,0.1,3.6,0.2,5.4,0.2c40.1,0,71.7-38.6,71.7-89.1
			c0-52.7-34.5-98.3-77-102C2471.8,1690.2,2470,1690.1,2468.2,1690.1L2468.2,1690.1z"/>
	</g>
	<g>
		<path class="st10" d="M2466.6,934.1c15.7,0,31.6,0.7,47.6,2c378.9,32.1,686.1,438.8,686.1,908.1c0,449.6-281.8,793.7-638.5,793.7
			c-15.7,0-31.6-0.7-47.6-2c-378.9-32.1-686.1-438.8-686.1-908.1C1828.1,1278.2,2109.9,934.1,2466.6,934.1 M2466.6,916.4v17.7V916.4
			L2466.6,916.4c-178.5,0-344.3,83.4-466.8,234.8c-122.1,151-189.4,355.8-189.4,576.6c0,230.9,72.7,454.1,204.5,628.7
			c64.3,85.2,139.4,154.2,223,205.1c86.9,52.9,179.4,83.9,274.8,92c16.4,1.4,32.9,2.1,49.1,2.1c178.5,0,344.3-83.4,466.8-234.8
			c122.1-151,189.4-355.8,189.4-576.6c0-230.9-72.7-454.1-204.5-628.7c-64.3-85.2-139.4-154.2-223-205.1
			c-86.9-52.9-179.4-83.9-274.8-92C2499.3,917.1,2482.8,916.4,2466.6,916.4L2466.6,916.4z"/>
	</g>
</g>
<g>
	<g>
		<g>
			<path class="st7" d="M518.6,1000.2c11,0,22.1,0.5,33.3,1.4c265.2,22.5,480.2,307.1,480.2,635.6c0,314.7-197.2,555.5-446.9,555.5
				c-11,0-22.1-0.5-33.3-1.4c-265.2-22.5-480.2-307.1-480.2-635.6C71.8,1241.1,269,1000.2,518.6,1000.2 M518.6,988.2L518.6,988.2
				c-124.8,0-240.8,58.3-326.4,164.2C106.8,1258,59.7,1401.3,59.7,1555.7c0,161.5,50.8,317.7,143.1,439.8
				c92.8,122.8,216.4,196.6,348.1,207.8c11.4,1,23,1.5,34.3,1.5c124.8,0,240.8-58.3,326.4-164.2c85.4-105.6,132.5-248.9,132.5-403.3
				c0-161.5-50.8-317.7-143.1-439.8c-92.8-122.8-216.4-196.6-348.1-207.8C541.5,988.7,530,988.2,518.6,988.2L518.6,988.2z"/>
			<path class="st7" d="M518.6,1000.2v33l0,0c10.1,0,20.3,0.4,30.5,1.3c248.1,21,450,291.4,450,602.7c0,144.2-43.5,277.3-122.5,375
				c-76.9,95.1-180.4,147.5-291.4,147.5c-10.1,0-20.3-0.4-30.5-1.3c-248.1-21-450-291.4-450-602.7c0-144.2,43.5-277.3,122.5-375
				c76.9-95.1,180.4-147.5,291.4-147.5V1000.2 M518.6,1000.2c-249.7,0-446.9,240.9-446.9,555.5c0,328.5,215,613.1,480.2,635.6
				c11.2,1,22.3,1.4,33.3,1.4c249.7,0,446.9-240.9,446.9-555.5c0-328.5-215-613.1-480.2-635.6
				C540.7,1000.7,529.6,1000.2,518.6,1000.2L518.6,1000.2z"/>
		</g>
		<g>
			<g>
				<path class="st3" d="M464.3,2157.5c-0.1,0-0.2,0-0.3,0c-1.6-0.2-2.8-1.6-2.7-3.3l51.3-494.7c0.2-1.6,1.7-2.8,3.3-2.7
					c1.6,0.2,2.8,1.6,2.7,3.3l-51.3,494.7C467.1,2156.4,465.8,2157.5,464.3,2157.5z"/>
			</g>
			<g>
				<path class="st3" d="M338.9,2093.2c-0.4,0-0.7,0-1-0.2c-1.5-0.6-2.3-2.3-1.8-3.8l157.4-432.8c0.6-1.5,2.3-2.3,3.8-1.8
					c1.5,0.6,2.3,2.3,1.8,3.8l-157.4,432.8C341.3,2092.5,340.1,2093.2,338.9,2093.2z"/>
			</g>
			<g>
				<path class="st3" d="M232.2,1986.5c-0.6,0-1.2-0.2-1.8-0.6c-1.3-1-1.6-2.9-0.6-4.2l252.1-335.9c1-1.3,2.9-1.6,4.2-0.6
					c1.3,1,1.6,2.9,0.6,4.2l-252.1,335.9C234,1986,233.1,1986.5,232.2,1986.5z"/>
			</g>
			<g>
				<path class="st3" d="M160.6,1873.1c-0.9,0-1.8-0.4-2.4-1.2c-1-1.3-0.7-3.2,0.6-4.2l314.8-234.8c1.3-1,3.2-0.7,4.2,0.6
					c1,1.3,0.7,3.2-0.6,4.2l-314.8,234.8C161.8,1872.9,161.2,1873.1,160.6,1873.1z"/>
			</g>
			<g>
				<path class="st3" d="M115.3,1744.2c-1.2,0-2.4-0.8-2.8-2c-0.5-1.5,0.3-3.3,1.9-3.8l350.4-118.6c1.5-0.5,3.3,0.3,3.8,1.9
					c0.5,1.5-0.3,3.3-1.9,3.8L116.2,1744C115.9,1744.1,115.6,1744.2,115.3,1744.2z"/>
			</g>
			<g>
				<path class="st3" d="M92.7,1617.4c-1.6,0-3-1.3-3-2.9c0-1.6,1.3-3.1,2.9-3.1l371.6-9c1.5,0,3.1,1.3,3.1,2.9
					c0,1.6-1.3,3.1-2.9,3.1L92.7,1617.4C92.8,1617.4,92.7,1617.4,92.7,1617.4z"/>
			</g>
			<g>
				<path class="st3" d="M463.4,1591.4c-0.3,0-0.5,0-0.8-0.1L91.9,1485.7c-1.6-0.4-2.5-2.1-2.1-3.7s2.1-2.5,3.7-2.1l370.6,105.5
					c1.6,0.4,2.5,2.1,2.1,3.7C465.9,1590.5,464.6,1591.4,463.4,1591.4z"/>
			</g>
			<g>
				<path class="st3" d="M467.3,1575.9c-0.5,0-1.1-0.1-1.6-0.5l-352.1-223.7c-1.4-0.9-1.8-2.7-0.9-4.2c0.9-1.4,2.7-1.8,4.2-0.9
					L469,1570.4c1.4,0.9,1.8,2.7,0.9,4.2C469.3,1575.4,468.3,1575.9,467.3,1575.9z"/>
			</g>
			<g>
				<path class="st3" d="M475.3,1562.9c-0.8,0-1.6-0.4-2.3-1l-297.3-332.2c-1.1-1.2-1-3.1,0.2-4.2c1.2-1.1,3.1-1,4.2,0.2
					l297.3,332.2c1.1,1.2,1,3.1-0.2,4.2C476.8,1562.7,476,1562.9,475.3,1562.9z"/>
			</g>
			<g>
				<path class="st3" d="M484.3,1554c-1.1,0-2.2-0.6-2.7-1.7l-207.5-430.8c-0.7-1.5-0.1-3.3,1.4-4c1.5-0.7,3.3-0.1,4,1.4
					l207.5,430.8c0.7,1.5,0.1,3.3-1.4,4C485.2,1553.9,484.8,1554,484.3,1554z"/>
			</g>
		</g>
		<g>
			<path class="st3" d="M496.3,1545.5c-1.5,0-2.7-1.1-3-2.6L422,1043.8c-0.2-1.6,0.9-3.1,2.6-3.4c1.6-0.2,3.1,0.9,3.4,2.6
				l71.4,499.2c0.2,1.6-0.9,3.1-2.6,3.4C496.6,1545.5,496.5,1545.5,496.3,1545.5z"/>
		</g>
		<g>
			<g>
				<path class="st8" d="M610.6,1658.9c-1,0-2.1,0-3.1-0.1c-23.7-2-49-53.5-49-88.2c0-21.6,9.5-30,33.7-30c4.1,0,8.6,0.2,14.2,0.7
					c25.8,2.2,46.8,30.6,46.8,63.2c0,15.1-4.6,29.1-12.8,39.3C632.5,1653.5,621.9,1658.9,610.6,1658.9L610.6,1658.9z"/>
				<path class="st3" d="M592.2,1546.6c3.9,0,8.3,0.2,13.8,0.7c22.4,1.9,41.3,28.1,41.3,57.2c0,27.2-16.1,48.5-36.7,48.5
					c-0.8,0-1.7,0-2.6-0.1c-18.7-1.6-43.5-48.5-43.5-82.2C564.4,1552.2,570.9,1546.6,592.2,1546.6 M592.2,1534.5
					c-22.3,0-39.8,6.5-39.8,36c0,35.8,25.6,91.8,54.5,94.2c1.2,0.1,2.4,0.1,3.6,0.1c27.2,0,48.6-26.2,48.6-60.4
					c0-35.8-23.4-66.7-52.3-69.2C601.9,1534.8,596.9,1534.5,592.2,1534.5L592.2,1534.5z"/>
			</g>
		</g>
		<path class="st9" d="M505.3,1538.5c0,0,25.3,5.7,49.1,7.9c17.4,1.6,28.1,0.4,41.2-3.3c15.6-4.4,47.1,16,52.7,49
			c5.6,33-10.1,56-23.3,62.1c-13.2,6.1-33.8-6.8-53.2-1c-24.7,7.4-37,12-37,12L505.3,1538.5z"/>
		<path class="st3" d="M552,934.9C247.1,909,0,1187.5,0,1556.9s247.1,689.8,552,715.7s552-252.6,552-622S856.9,960.8,552,934.9z
			 M537.2,2179c-257-21.8-465.4-297.6-465.4-616.1s208.4-558.9,465.4-537c257,21.8,465.4,297.6,465.4,616.1S794.2,2200.9,537.2,2179
			z"/>
		<g>
			<g>
				<path class="st3" d="M511.4,1548.6c-0.2,0-0.4,0-0.5,0c-1.9-0.3-3.1-2-2.8-3.8l83.5-541.1c0.3-1.9,2-3.1,3.8-2.8
					c1.9,0.3,3.1,2,2.8,3.8l-83.5,541.1C514.5,1547.4,513.1,1548.6,511.4,1548.6z"/>
			</g>
			<g>
				<path class="st3" d="M526.6,1550.1c-0.4,0-0.9-0.1-1.3-0.3c-1.7-0.8-2.5-2.7-1.8-4.4l219.1-511.5c0.8-1.7,2.7-2.5,4.4-1.8
					c1.7,0.8,2.5,2.7,1.8,4.4l-219.1,511.5C529.2,1549.4,528,1550.1,526.6,1550.1z"/>
			</g>
			<g>
				<path class="st3" d="M535.7,1559c-0.8,0-1.5-0.3-2.2-0.8c-1.4-1.2-1.6-3.3-0.4-4.8l338.3-403.5c1.2-1.4,3.3-1.6,4.8-0.4
					c1.4,1.2,1.6,3.3,0.4,4.8l-338.3,403.5C537.6,1558.6,536.6,1559,535.7,1559z"/>
			</g>
			<g>
				<path class="st3" d="M544.5,1568.6c-1.1,0-2.2-0.5-2.8-1.5c-1.1-1.5-0.6-3.6,0.9-4.7l438.6-294.8c1.5-1.1,3.6-0.6,4.7,0.9
					c1.1,1.5,0.6,3.6-0.9,4.7l-438.6,294.8C545.8,1568.5,545.2,1568.6,544.5,1568.6z"/>
			</g>
			<line class="st11" x1="1027.7" y1="1439.3" x2="552" y2="1576.9"/>
			<g>
				<path class="st3" d="M1046,1593.9H556c-1.9,0-3.4-1.5-3.4-3.4s1.5-3.4,3.4-3.4h490c1.9,0,3.4,1.5,3.4,3.4
					S1047.9,1593.9,1046,1593.9z"/>
			</g>
			<g>
				<path class="st3" d="M1032.1,1744.6c-0.3,0-0.6,0-0.9-0.1L555,1608.7c-1.8-0.5-2.8-2.4-2.3-4.2c0.5-1.8,2.4-2.8,4.2-2.3
					l476.2,135.7c1.8,0.5,2.8,2.4,2.3,4.2C1035,1743.6,1033.6,1744.6,1032.1,1744.6z"/>
			</g>
			<g>
				<path class="st3" d="M999.5,1895.3c-0.6,0-1.2-0.2-1.8-0.5l-446.1-271.3c-1.6-1-2.1-3.1-1.1-4.6c1-1.6,3.1-2.1,4.6-1.1
					l446.1,271.3c1.6,1,2.1,3.1,1.1,4.6C1001.8,1894.7,1000.7,1895.3,999.5,1895.3z"/>
			</g>
			<g>
				<path class="st3" d="M884.3,2009.8c-0.9,0-1.9-0.4-2.5-1.1l-335.7-371.2c-1.2-1.4-1.1-3.5,0.2-4.8c1.4-1.2,3.5-1.1,4.8,0.2
					l335.7,371.2c1.2,1.4,1.1,3.5-0.2,4.8C885.9,2009.5,885.1,2009.8,884.3,2009.8z"/>
			</g>
			<g>
				<path class="st3" d="M770.4,2114.5c-1.2,0-2.4-0.7-3-1.9L538,1651.1c-0.8-1.7-0.1-3.7,1.5-4.5c1.7-0.8,3.7-0.1,4.5,1.5
					l229.4,461.5c0.8,1.7,0.1,3.7-1.5,4.5C771.4,2114.3,770.9,2114.5,770.4,2114.5z"/>
			</g>
			<g>
				<path class="st3" d="M612.9,2163.9c-1.6,0-3.1-1.1-3.3-2.8L526,1658c-0.3-1.9,0.9-3.6,2.8-3.9c1.8-0.3,3.6,0.9,3.9,2.8
					l83.6,503.1c0.3,1.9-0.9,3.6-2.8,3.9C613.2,2163.9,613,2163.9,612.9,2163.9z"/>
			</g>
		</g>
		<g>
			<path class="st8" d="M513.3,1661.2c-1,0-2.1,0-3.1-0.1c-25.8-2.2-46.8-30.6-46.8-63.2c0-30.6,18.7-54.5,42.6-54.5
				c1,0,2.1,0,3.1,0.1c25.8,2.2,46.8,30.6,46.8,63.2c0,15.1-4.6,29.1-12.8,39.3C535.2,1655.8,524.6,1661.2,513.3,1661.2
				L513.3,1661.2z"/>
			<path class="st3" d="M506,1549.4c0.8,0,1.7,0,2.6,0.1c22.4,1.9,41.3,28.1,41.3,57.2c0,27.2-16.1,48.5-36.7,48.5
				c-0.8,0-1.7,0-2.6-0.1c-22.4-1.9-41.3-28.1-41.3-57.2C469.4,1570.7,485.5,1549.4,506,1549.4 M506,1537.5
				c-27.2,0-48.6,26.2-48.6,60.4c0,35.8,23.4,66.7,52.3,69.2c1.2,0.1,2.4,0.1,3.6,0.1c27.2,0,48.6-26.2,48.6-60.4
				c0-35.8-23.4-66.7-52.3-69.2C508.4,1537.5,507.2,1537.5,506,1537.5L506,1537.5z"/>
		</g>
		
			<ellipse transform="matrix(0.9885 -0.1513 0.1513 0.9885 -236.5334 95.5897)" class="st9" cx="509.9" cy="1602.2" rx="71.4" ry="89.6"/>
		<g>
			<path class="st10" d="M504.9,1024.5c10.7,0,21.4,0.4,32.3,1.4c257,21.8,465.4,297.6,465.4,616.1c0,305-191.2,538.4-433.2,538.4
				c-10.7,0-21.4-0.4-32.3-1.4c-257-21.8-465.4-297.6-465.4-616.1C71.8,1258,262.9,1024.5,504.9,1024.5 M504.9,1012.5L504.9,1012.5
				c-121.1,0-233.6,56.6-316.6,159.3C105.4,1274.3,59.7,1413.2,59.7,1563c0,156.6,49.3,308.1,138.8,426.5
				c90,119.1,209.9,190.7,337.6,201.5c11.1,0.9,22.3,1.4,33.3,1.4c121.1,0,233.6-56.6,316.6-159.3
				c82.9-102.5,128.5-241.3,128.5-391.1c0-156.6-49.3-308.1-138.8-426.5c-90-119.1-209.9-190.7-337.6-201.5
				C527.1,1013,515.9,1012.5,504.9,1012.5L504.9,1012.5z"/>
		</g>
	</g>
</g>
<path class="st4" d="M1017.1,487.5L1017.1,487.5c-0.1-0.6-0.3-1.1-0.5-1.7c-3.9-11.2-24.5-15.5-45.9-9.6
	c-20.3,5.6-34,18.4-31.9,29.4l-0.2,0l68.5,297.5l77.7-18.3L1017.1,487.5z"/>
<g>
	
		<linearGradient id="SVGID_2_" gradientUnits="userSpaceOnUse" x1="473.5317" y1="1138.0792" x2="1274.4052" y2="1138.0792" gradientTransform="matrix(1 0 0 -1 0 2776)">
		<stop  offset="0" style="stop-color:#4D4D4D"/>
		<stop  offset="0.842" style="stop-color:#4D4D4D"/>
	</linearGradient>
	<path class="st12" d="M1256,1857.9l-699.1-173.4c-35.2-9.7-62.9-34.8-75.8-69c-12.9-34-9.1-71,10.6-101.5l58.5-96.1L599,1451
		l-48.9,100.4c-7.7,11.9-9.2,26.3-4.2,39.5c5,13.3,15.7,23,29.4,26.8l699.1,173.4L1256,1857.9z"/>
</g>
<g>
	
		<ellipse transform="matrix(0.9885 -0.1513 0.1513 0.9885 -236.6441 96.3521)" class="st2" cx="514.8" cy="1603.3" rx="26.9" ry="33.8"/>
</g>
<path class="st4" d="M1207,363.6c-14.3,0.6-61.6,8.1-150.3,11.3c-82.8,3-179.1-2.2-218.3,0c-81.2,4.5-111,11.2-111,11.2
	c-13.9,0.7-25.3,11.2-27.2,24.9l-6.1,43.8c-2.9,20.6,13.4,51.2,39.5,51.2c12.9,0,60.1-1.8,141.7-18.7
	c75.7-15.7,131.3-39.8,202.1-52.9c73-13.5,144.6-18.7,144.6-18.7c2.6-0.4,19.5-3,22-2.3c0,0,15.3,5.9,15.3,0.9
	C1259.4,414.4,1223.8,362.9,1207,363.6z"/>
<path class="st13" d="M1206.2,363.6c16.1-1.3,32,2,36.3,4.1c17.8,8.8,26.8,49.2,13.1,55.6c-5.9-10-29.6-8.2-29.6-8.2
	S1233.6,373.1,1206.2,363.6z"/>
<linearGradient id="SVGID_3_" gradientUnits="userSpaceOnUse" x1="1474.4677" y1="2032.2428" x2="1588.4164" y2="2032.2428" gradientTransform="matrix(0.9706 -0.2407 -0.2407 -0.9706 160.9662 3586.3567)">
	<stop  offset="0" style="stop-color:#1A1A1A"/>
	<stop  offset="0.245" style="stop-color:#4D4D4D"/>
	<stop  offset="0.6355" style="stop-color:#999999"/>
	<stop  offset="1" style="stop-color:#4D4D4D"/>
</linearGradient>
<path class="st14" d="M1066.8,639.9c0-0.1,0-0.2,0-0.3c-2.9-11.5-29.8-14.9-60-7.3c-30.3,7.5-52.5,23-49.7,34.5
	c0,0.1,0.1,0.2,0.1,0.3l292.5,1183.6c0,0.1,0,0.2,0,0.3c2.9,11.5,29.8,14.9,60,7.3c30.3-7.5,52.5-23,49.7-34.5
	c0-0.1-0.1-0.2-0.1-0.3L1066.8,639.9z"/>
<linearGradient id="SVGID_4_" gradientUnits="userSpaceOnUse" x1="4781.8765" y1="2489.8335" x2="4870.186" y2="2489.8335" gradientTransform="matrix(-0.1592 -0.9872 -0.9872 0.1592 4149.5469 4765.2139)">
	<stop  offset="0" style="stop-color:#1A1A1A"/>
	<stop  offset="0.245" style="stop-color:#4D4D4D"/>
	<stop  offset="0.6355" style="stop-color:#999999"/>
	<stop  offset="1" style="stop-color:#4D4D4D"/>
</linearGradient>
<path class="st15" d="M605.4,430.1c-3.9,5.5-6.7,17.1-4.6,30.1c1.4,8.8,4.8,16.6,8.5,22.1c5.6-0.5,27-0.6,28.8,5.5
	c2.8-0.4,545.7-99.3,545.7-99.3l54-9.9c0.1,0,0.1,0,0.2,0c7.9-1.2,11.6-19,8.3-39.8c-3.4-20.8-12.5-36.6-20.4-35.2
	c-0.1,0-0.1,0.1-0.2,0.1L622.4,424.5C622.5,424.5,614.5,428.8,605.4,430.1z"/>
<linearGradient id="SVGID_5_" gradientUnits="userSpaceOnUse" x1="4327.709" y1="750.387" x2="4454.4609" y2="750.387" gradientTransform="matrix(-0.8343 -0.5514 -0.5514 0.8343 5799.1357 2987.8164)">
	<stop  offset="0" style="stop-color:#1A1A1A"/>
	<stop  offset="0.245" style="stop-color:#4D4D4D"/>
	<stop  offset="0.6355" style="stop-color:#999999"/>
	<stop  offset="1" style="stop-color:#4D4D4D"/>
</linearGradient>
<path class="st16" d="M1263.2,1796.9c0,0.1-0.1,0.1-0.2,0.2c-5.9,9,10.4,30.2,36.4,47.4c26,17.2,52,23.9,57.9,15
	c0-0.1,0.1-0.2,0.1-0.3l830.4-1259.2c0-0.1,0.2-0.2,0.2-0.3c7.3-10.9-9.8-35.7-38.3-55.4c-28.5-19.7-57.6-26.7-64.8-15.7
	c0,0.1-0.1,0.2-0.1,0.3L1263.2,1796.9z"/>
<linearGradient id="SVGID_6_" gradientUnits="userSpaceOnUse" x1="2720.2556" y1="2586.8987" x2="2840.0889" y2="2586.8274" gradientTransform="matrix(0.9519 -0.3063 -0.3063 -0.9519 277.1953 3780.3965)">
	<stop  offset="0" style="stop-color:#1A1A1A"/>
	<stop  offset="0.245" style="stop-color:#4D4D4D"/>
	<stop  offset="0.6355" style="stop-color:#999999"/>
	<stop  offset="1" style="stop-color:#4D4D4D"/>
</linearGradient>
<path class="st17" d="M2106.5,193.3c0-0.1,0-0.2,0-0.3c-3.8-11.7-31.7-13.2-62.3-3.3c-30.6,9.9-52.4,27.3-48.7,39
	c0,0.1,0.1,0.2,0.1,0.3l160.6,510.5c0,0.1,0,0.2,0,0.3c3.8,11.7,31.7,13.2,62.3,3.3c30.7-9.9,52.4-27.3,48.7-39
	c0-0.1-0.1-0.2-0.1-0.3L2106.5,193.3z"/>
<g>
	<path class="st0" d="M2051.4,262.3c0,0-22.2,5.7-33.2-23.3c-11-29,8.2-42.4,8.2-42.4l136.6-90.7l93.8,18.8L2051.4,262.3z"/>
</g>
<g>
	
		<ellipse transform="matrix(0.143 -0.9897 0.9897 0.143 1716.4265 2259.4084)" class="st3" cx="2162.9" cy="138.6" rx="44" ry="23.6"/>
	<g>
		<g>
			<path class="st3" d="M2750.6,187.2L2750.6,187.2L2418,133.1l-13.5,91.7l331.8,54.2v0c0.4,0,0.8,0.1,1.2,0.2
				c13.8,0.7,27.3-19.5,30.2-44.9C2770.6,210.2,2763,190.1,2750.6,187.2z"/>
			
				<ellipse transform="matrix(0.143 -0.9897 0.9897 0.143 1889.1252 2539.9905)" class="st18" cx="2411.2" cy="179.1" rx="46.3" ry="24.8"/>
		</g>
	</g>
	<g>
		<path class="st4" d="M2415.2,139l0-0.1l-503.7-82.4l-13,80.7l502.5,81.6c0.9,0.3,1.8,0.4,2.7,0.5c12,0.6,23.8-17,26.4-39.2
			C2432.6,159.1,2426,141.6,2415.2,139z"/>
		
			<ellipse transform="matrix(0.143 -0.9897 0.9897 0.143 1536.5955 1968.2876)" class="st18" cx="1904.9" cy="96.9" rx="40.8" ry="21.8"/>
	</g>
	<g>
		<path class="st3" d="M1979.7,62.7l0-0.2L1629.7,5.7l-14.9,92.5l348.7,55.9c1,0.3,2,0.5,3.1,0.5c13.8,0.7,27.3-19.5,30.2-44.9
			C1999.5,85.7,1992,65.6,1979.7,62.7z"/>
		
			<ellipse transform="matrix(0.143 -0.9897 0.9897 0.143 1338.6569 1649.8118)" class="st18" cx="1622" cy="51.9" rx="46.7" ry="25"/>
	</g>
	<path class="st3" d="M2246.1,108.1l0-0.2l-77.2-13v0c11.9,2.4,19.2,21.6,16.5,44.4c-2.8,24.1-15.6,43.1-28.6,42.5
		c-0.6,0-1.2-0.1-1.9-0.3l0,0.2l75.9,12.1c0.9,0.3,1.9,0.5,2.9,0.5c12.9,0.6,25.6-18.3,28.4-42.2
		C2264.7,129.7,2257.6,110.8,2246.1,108.1z"/>
</g>
<g>
	<g>
		<path class="st9" d="M1287.8,1599c3.1,0,6.2,0.1,9.3,0.4c37.5,3.2,73.4,25.2,101.2,61.9c29.7,39.3,46,89.9,46,142.4
			c0,97-57.3,172.9-130.4,172.9c-3.1,0-6.2-0.1-9.3-0.4c-37.5-3.2-73.4-25.2-101.2-61.9c-29.7-39.3-46-89.9-46-142.4
			C1157.4,1674.9,1214.7,1599,1287.8,1599 M1287.8,1554.7c-97.6,0-174.7,94.1-174.7,217.1c0,128.4,84,239.6,187.7,248.4
			c4.4,0.4,8.7,0.6,13,0.6c97.6,0,174.7-94.1,174.7-217.1c0-128.4-84-239.6-187.7-248.4C1296.5,1555,1292.1,1554.7,1287.8,1554.7
			L1287.8,1554.7z"/>
	</g>
	<path class="st9" d="M1463.4,1761.9l-17.2-61.7l-123.4,30l-5.7-155.9l-54.5-3.4l-3.5,156l-110.5-29.1L1129,1760l106.7,48.7
		l-61.6,94.1l44.7,46.3l73.5-90l92.9,110.2l50.1-55.9l-84.2-106.3L1463.4,1761.9z"/>
	<g>
		
			<ellipse transform="matrix(0.9885 -0.1513 0.1513 0.9885 -256.0336 216.1691)" class="st9" cx="1292.5" cy="1790.6" rx="59.1" ry="74.2"/>
	</g>
	<g>
		<path d="M1322,2031.1c-7.6,0-15.2-0.7-22.8-2.1c-96.9-17.7-790.9-326.4-820.4-339.5l-1.5-0.8c-27.3-19.1-44.3-54.1-44.3-91.5
			c0-29.8,10.9-56.8,29.8-74.2c14.7-13.5,33.3-20,52.3-18.5l786.1,42c108.2,9.2,196.1,124.6,196.1,257.3c0,75.7-31.6,149-82.5,191.5
			C1386.6,2018.7,1354.4,2031.1,1322,2031.1z M486.8,1673.7c27.6,12.3,722.2,320.8,815.6,337.9c34.4,6.3,70.3-4.4,101.1-30
			c47-39.1,76.1-107.3,76.1-177.8c0-123.7-80.6-231.2-179.6-239.6l-786.2-42c-14.3-1.2-27.8,3.6-39,13.9
			c-15.3,14.1-24.1,36.4-24.1,61.2C450.8,1628.1,464.9,1658,486.8,1673.7z"/>
	</g>
	<g>
		<path class="st2" d="M1287.8,1757.5c-13.8,0-24.9,11.2-24.9,24.9v371.8c0,13.8,11.2,24.9,24.9,24.9s24.9-11.2,24.9-24.9v-371.8
			C1312.7,1768.7,1301.6,1757.5,1287.8,1757.5z"/>
		<g>
			<path class="st19" d="M1308.5,2163.5c-2.7,0-4.9-2.2-4.9-4.9c0,0,0-375.1,0-382.3s-3.4-14.4-7.7-17.4
				c7.7,2.7,17.6,10.2,17.6,28.3v371.3C1313.4,2161.3,1311.2,2163.5,1308.5,2163.5z"/>
		</g>
	</g>
	<g>
		<path class="st0" d="M1081,2151.4v18.6c0,5.6,4,10.5,9.5,11.6l117,24c5.2,1.1,10.6,0.9,15.7-0.5l122.8-33.4
			c5.2-1.4,8.8-6.1,8.8-11.5v-13.8c0-6.2-4.8-11.4-11-11.9l-114.4-8.3c-0.7,0-1.3,0-2,0l-135.7,13.3
			C1085.6,2140.1,1081,2145.2,1081,2151.4z"/>
		<path class="st1" d="M1227.3,2126.3l-136.9,13.4c-1.5,0.1-1.5,2.3-0.1,2.5l117.8,20c3.3,0.6,6.6,0.5,9.9-0.1l127-24.9
			c1.5-0.3,1.4-2.5-0.2-2.6l-115.6-8.4C1228.7,2126.2,1228,2126.2,1227.3,2126.3z"/>
	</g>
</g>
<g>
	
		<linearGradient id="SVGID_7_" gradientUnits="userSpaceOnUse" x1="2272.3926" y1="1485.0061" x2="2349.1484" y2="1509.6499" gradientTransform="matrix(1 0 0 -1 0 2776)">
		<stop  offset="0" style="stop-color:#1A1A1A"/>
		<stop  offset="0.245" style="stop-color:#4D4D4D"/>
		<stop  offset="0.6355" style="stop-color:#999999"/>
		<stop  offset="1" style="stop-color:#4D4D4D"/>
	</linearGradient>
	<path class="st20" d="M2473.7,1825.8c-16.8,0-32.5-10.7-37.9-27.6c0,0-134.7-418.4-307.4-955.3c-10.5-32.8-30.8-102.1,12.6-110.9
		c43.3-8.9,58.1,70.6,63.2,86.6c172.6,536.9,307.3,955.3,307.3,955.3c6.7,20.9-4.8,43.3-25.7,50.1
		C2481.9,1825.1,2477.8,1825.8,2473.7,1825.8z"/>
	<g>
		
			<ellipse transform="matrix(0.9885 -0.1513 0.1513 0.9885 -241.6723 394.8448)" class="st2" cx="2473.9" cy="1785.6" rx="25.5" ry="32"/>
	</g>
</g>
<path class="st21" d="M2326.4,740.6c-8.1-25.1-32.5-41.1-58.7-38.6l-1.3,0.1l-8.3-28c0,0-11.8-4.2-56.2,9
	c-44.4,13.2-55.5,24.2-55.5,24.2l3.1,10.6c-29,14.3-45.1,48.3-34.7,81.4l9,28.5l77.1-21.7l-5.1-19.3c-3.1-11.8,4.8-23.7,16.9-25.4
	l17.7-2.5c10.1-1.4,19.7,4.6,22.9,14.3l6.3,19.3l78-17.1L2326.4,740.6z"/>
<g>
	
		<linearGradient id="SVGID_8_" gradientUnits="userSpaceOnUse" x1="819.5447" y1="1603.1736" x2="679.7609" y2="1668.3562" gradientTransform="matrix(1 0 0 -1 0 2776)">
		<stop  offset="0" style="stop-color:#999999"/>
		<stop  offset="0.842" style="stop-color:#4D4D4D"/>
	</linearGradient>
	<path class="st22" d="M543,1576.9c-21.4-44.9-53.1-42.4-61.9-42.4c3.1-8.5,5.5-12.5,5.5-12.5l481.6-812.8c0,0,22.9,7.3,28.2,35.3
		c5.3,28-5.1,60-5.1,60l-442,748.2C549.3,1552.7,543.1,1558,543,1576.9z"/>
</g>
<path class="st23" d="M2051.4,262.3c0,0,40.5-23.1,58.1-18.9c14.6,3.5,14.5,6.9,14.5,6.9l106.7-56.5l-74-12L2051.4,262.3z"/>
</svg>
