<?xml version="1.0" encoding="utf-8"?>
<!-- Generator: Adobe Illustrator 25.2.1, SVG Export Plug-In . SVG Version: 6.00 Build 0)  -->
<svg version="1.1" id="car" xmlns="http://www.w3.org/2000/svg" xmlns:xlink="http://www.w3.org/1999/xlink" x="0px" y="0px"
	 viewBox="0 0 4442 1971.3" style="enable-background:new 0 0 4442 1971.3;" xml:space="preserve">
<style type="text/css">
	.st0{fill:url(#SVGID_1_);}
	.st1{fill:url(#SVGID_2_);}
	.st2{fill:#333333;}
	.st3{fill:#808080;}
	.st4{fill:#A6A6A6;}
	.st5{fill:url(#SVGID_3_);}
	.st6{fill:url(#SVGID_4_);stroke:#000000;stroke-miterlimit:10;}
	.st7{fill:url(#SVGID_5_);}
	.st8{fill:#404040;}
	.st9{fill:#595959;}
	.st10{fill:#4D4D4D;}
	.st11{fill:url(#SVGID_6_);}
	.st12{fill:none;stroke:#808080;stroke-miterlimit:10;}
	.st13{opacity:0.15;fill:#FFFFFF;enable-background:new    ;}
	.st14{fill:url(#SVGID_7_);}
	.st15{opacity:0.25;fill:#FFFFFF;enable-background:new    ;}
	.st16{clip-path:url(#SVGID_9_);}
</style>
<g>
	
		<linearGradient id="SVGID_1_" gradientUnits="userSpaceOnUse" x1="2273.9006" y1="2656.1125" x2="2304.6736" y2="2068.9299" gradientTransform="matrix(1 0 0 -1 0 2776)">
		<stop  offset="0" style="stop-color:#444444"/>
		<stop  offset="0.513" style="stop-color:#282828"/>
		<stop  offset="1" style="stop-color:#111111"/>
	</linearGradient>
	<path class="st0" d="M3390.7,552.7c-82.8-80-398.1-300.5-673.6-416.4c-110.8-5.4-246-8.2-392.2-2.8
		c-364.2,13.5-1079.3,40.3-1079.3,40.3L1181,198l116.2,89.2l576,442.5l959.4-64.3C2832.5,665.5,3443.7,603.9,3390.7,552.7z"/>
</g>
<linearGradient id="SVGID_2_" gradientUnits="userSpaceOnUse" x1="1628.8755" y1="2773.6218" x2="1635.1545" y2="2593.814" gradientTransform="matrix(1 0 0 -1 0 2776)">
	<stop  offset="0" style="stop-color:#999999"/>
	<stop  offset="1" style="stop-color:#F2F2F2"/>
</linearGradient>
<path class="st1" d="M2324.8,133.5c146.2-5.4,281.5-2.6,392.2,2.8c-8-3.4-16-6.7-23.9-9.8c-64.9-26.1-127-45.8-182.9-55.9
	c-206.1-37.4-630.4-78.2-847.8-69.2c-217.4,9-545.3,9.7-812.7,72.8c-217.3,51.3-298.2,104.6-298.2,104.6l579.7-18.9L1181,198
	l64.5-24.2C1245.5,173.8,1960.6,147,2324.8,133.5z"/>
<path d="M187.2,574.3l2918,472.1l-331.5,734.6l-2638-560.7c0,0-96.9-143.2-96.9-300.7C38.8,762,187.2,574.3,187.2,574.3z"/>
<g>
	<path class="st2" d="M2241.8,1070.4c119.5-48.2,359.9-13.6,439,15.1c79.2,28.6,189.8,281.1,183.8,425.1
		c-6,143.9-40.7,359.6-128,391.9c-62.6,23.1-167.9,58.5-254.5,67.6c-86.7,9.2-194.8-33.8-266.6-99.5
		c-71.7-65.7-160.1-200.9-160.1-420.5C2055.4,1231.8,2122.3,1118.6,2241.8,1070.4z"/>
	<g>
		<g>
			
				<ellipse transform="matrix(0.9893 -0.1459 0.1459 0.9893 -195.4673 355.3789)" class="st2" cx="2325" cy="1510.3" rx="264.9" ry="427.8"/>
		</g>
	</g>
	<g>
		<g>
			
				<ellipse transform="matrix(0.9893 -0.1459 0.1459 0.9893 -195.4673 355.3789)" class="st3" cx="2325" cy="1510.3" rx="216.4" ry="349.5"/>
		</g>
	</g>
	<path class="st4" d="M2324.8,1166.9c-121.6-27.3-220.1,104.5-220.1,294.2s98.5,365.8,220.1,393c121.6,27.3,220.1-104.5,220.1-294.2
		S2446.3,1194.2,2324.8,1166.9z M2505.3,1548.6c0,23.8-2.1,46.4-5.8,67.4l-84.7-62.8c2-8.9,3.1-18.6,3.1-29c0-1.6-0.1-3.2-0.2-4.8
		l87.2,12.7C2505.1,1537.6,2505.3,1543.1,2505.3,1548.6z M2166.8,1472.6c0-13.4,0.7-26.4,1.9-39l128.6,52.5
		c-0.3,3.6-0.5,7.2-0.5,10.9c0,4.6,0.3,9.1,0.7,13.6h-129C2167.4,1498,2166.8,1485.4,2166.8,1472.6z M2301.9,1536.1
		c2,7.6,4.5,14.7,7.6,21.4l-100.6,98.8c-10.1-20.3-18.7-42.3-25.4-65.6L2301.9,1536.1z M2402.1,1457.3l67.1-79.7
		c10,22.2,18.2,46.2,24.3,71.6c-17.4,7.7-51.1,22.9-80.6,36.3C2410.2,1475.3,2406.5,1465.8,2402.1,1457.3z M2431.6,1313.9
		l-45.4,120.1c-6.2-6.7-13.1-11.8-20.4-15l14.4-153.7C2398.8,1277.4,2416.1,1293.9,2431.6,1313.9z M2322,1244.1l22.7,171.2
		c-7.5,0.8-14.5,3.9-20.7,8.9l-64.4-166.6C2278.6,1246.8,2299.7,1242,2322,1244.1z M2214.1,1300l95.9,141c-4,6.9-7.2,15-9.4,24.1
		l-119.5-95.7C2189.1,1342.6,2200.4,1319.2,2214.1,1300z M2250.3,1719.2l71.7-139.9c4.4,6,9.4,11.1,14.6,15.3l-40.2,163.9
		C2280,1748.8,2264.5,1735.4,2250.3,1719.2z M2342.2,1776l9.8-172.5c1.8,0.6,3.5,1.2,5.3,1.6c5.4,1.2,10.7,1.2,15.7,0.2l27.3,164.2
		C2382.3,1777,2362.7,1779.5,2342.2,1776z M2443.3,1739.1l-53.3-141.7c5.9-4.6,11-10.8,15.3-18.5L2479,1684
		C2469.3,1705.7,2457.3,1724.3,2443.3,1739.1z"/>
</g>
<g>
	<path class="st2" d="M222.5,769.9c74.4-35.6,223.9-10,273.2,11.1S613.7,988.9,610,1095.2c-3.7,106.4-28.6,280-77,301
		c-39,16.9-107.1,31.9-161,38.7s-121.2-25-165.9-73.5c-44.6-48.5-99.6-148.5-99.6-310.8C106.5,889.2,148.1,805.5,222.5,769.9z"/>
	<g>
		<g>
			
				<ellipse transform="matrix(0.9945 -0.1043 0.1043 0.9945 -112.7519 34.503)" class="st2" cx="273.5" cy="1095.3" rx="165.2" ry="315.4"/>
		</g>
	</g>
	<g>
		<g>
			<g>
				
					<ellipse transform="matrix(0.9945 -0.1044 0.1044 0.9945 -112.8462 34.5579)" class="st3" cx="273.7" cy="1095.2" rx="133.7" ry="255"/>
			</g>
		</g>
		<path class="st4" d="M274.1,843.8c-74.8-20-135.6,76.4-135.6,215.3s60.7,267.6,135.6,287.5c74.8,20,135.6-76.4,135.6-215.3
			C409.7,992.6,349,863.8,274.1,843.8z M385.2,1123c0,17.4-1.3,33.9-3.6,49.3l-52.2-45.9c1.2-6.5,1.9-13.6,1.9-21.2
			c0-1.2-0.1-2.3-0.1-3.5l53.7,9.3C385.1,1115,385.2,1119,385.2,1123z M314.2,1158.8c3.6-3.3,6.8-8,9.4-13.6l45.4,76.9
			c-6,15.9-13.4,29.6-22,40.3L314.2,1158.8z M176.7,1067.5c0-9.8,0.4-19.4,1.2-28.5l79.2,38.4c-0.2,2.6-0.3,5.2-0.3,8
			c0,3.3,0.2,6.7,0.4,9.9h-79.4C177.1,1086.1,176.7,1076.8,176.7,1067.5z M260,1113.9c1.2,5.5,2.8,10.8,4.6,15.7l-62,72.2
			c-6.3-14.8-11.5-31-15.7-48L260,1113.9z M321.7,1056.3l41.3-58.4c6.2,16.2,11.2,33.8,14.9,52.4c-10.7,5.6-31.5,16.7-49.7,26.5
			C326.7,1069.5,324.4,1062.6,321.7,1056.3z M339.9,951.4l-27.9,87.9c-3.8-4.9-8.1-8.6-12.6-11l8.9-112.4
			C319.7,924.7,330.4,936.7,339.9,951.4z M272.4,900.3l14,125.3c-4.6,0.6-9,2.9-12.8,6.6l-39.7-121.9
			C245.6,902.3,258.6,898.7,272.4,900.3z M205.9,941.2l59.1,103.2c-2.5,5-4.4,11-5.8,17.6l-73.6-70
			C190.5,972.4,197.4,955.2,205.9,941.2z M228.2,1247.9l44.2-102.3c2.7,4.4,5.7,8.2,9,11.2l-24.8,119.9
			C246.5,1269.6,237,1259.8,228.2,1247.9z M284.8,1289.5l6.1-126.2c1.1,0.5,2.2,0.9,3.3,1.2c3.4,0.9,6.6,0.9,9.7,0.2l16.8,120.1
			C309.5,1290.2,297.4,1292,284.8,1289.5z"/>
	</g>
</g>
<linearGradient id="SVGID_3_" gradientUnits="userSpaceOnUse" x1="0" y1="1836.505" x2="4442" y2="1836.505" gradientTransform="matrix(1 0 0 -1 0 2776)">
	<stop  offset="0" style="stop-color:#666666"/>
	<stop  offset="0.245" style="stop-color:#B3B3B3"/>
	<stop  offset="0.6355" style="stop-color:#D4D4D4"/>
	<stop  offset="1" style="stop-color:#DEDEDE"/>
</linearGradient>
<path class="st5" d="M4422.4,1347.3c1-47.8,19.6-58.9,19.6-137.8c0-41.9-14.9-71.7-23.5-95.6c-4.8-13.5-0.4-29.1-0.4-44.1
	c0-90.8-69.5-203.6-140.5-282.4c-88.2-97.9-368.6-175.6-533.5-210c-175.6-36.6-356.4-64.3-510.4-147.2c25.4,23.9,119.4,74,93,82.3
	c-62.3,19.4-238.6,26.9-483.7,55.2c-309.2,35.7-734.3,45.6-769.7,50.3c-159.8,21-414.8-354.4-596.2-458.2
	c-117-66.9-212.9-107-479.7-101.7c-319.9,6.3-608.4,204.7-730,305.6c-54.9,45.5-210,36.9-250.3,121c-30.1,62.7-12.4,258.5-7.5,351.9
	c5.9,111.9,63.2,357.6,121.3,382.2c-3.5-11.4-6.6-23.3-9.3-35.3c-33.7-53.5-56-117-56-184c0-204.4,49-306.4,158.3-277
	c109.2,29.4,253.1,273.7,257.9,478c0.9,36.1,11.8,69.1,26.3,99.1c388.2,82.6,1006,214,1501.7,319.5
	c-27.7-72.6-43.4-153.4-43.4-236.2c0-256.5,149.9-435.5,344.1-398.6c194.2,36.9,379,339.5,387.4,595.9c2.4,73.2,4.9,134.6,0.3,184.9
	c62,13.2,97.1,20.6,97.1,20.6c200.8,39.8,424.1,40.5,563.8,29.9c139.7-10.6,426.5-98,783.1-204.8c177.1-53.1,266-104.6,286.5-124.6
	c11.4-11.1,9.8-28,9.8-41.3C4438.6,1372,4421.8,1375.8,4422.4,1347.3z"/>
<linearGradient id="SVGID_4_" gradientUnits="userSpaceOnUse" x1="1183.4855" y1="2646.1172" x2="1111.495" y2="2237.8416" gradientTransform="matrix(1 0 0 -1 0 2776)">
	<stop  offset="0" style="stop-color:#444444"/>
	<stop  offset="0.3042" style="stop-color:#393939"/>
	<stop  offset="1" style="stop-color:#222222"/>
</linearGradient>
<path class="st6" d="M1084.1,119.6c-172.1-1.1-517.4,52.6-597.5,170.2c-26.5,39,8.4,75.4,76.8,101.4
	c118.2,43.5,319.4,100.9,462.3,130.6c216.6,44.9,541.7,79.6,746.4,88.9c-58.3-80.5-174.2-250.2-339.7-367.4
	C1332,172.2,1214.7,120.4,1084.1,119.6z"/>
<g>
	<g>
		
			<radialGradient id="SVGID_5_" cx="3142.6733" cy="1687.9023" r="352.6534" gradientTransform="matrix(1 0 0 -1 0 2776)" gradientUnits="userSpaceOnUse">
			<stop  offset="0" style="stop-color:#FFFFFF"/>
			<stop  offset="1" style="stop-color:#EBEBEB"/>
		</radialGradient>
		<path class="st7" d="M3626.4,1118c-56.9-22.8-168.3-57.1-252.7-75.6c-66.4-14.6-129.9-25.3-183.2-33
			c-87.4-12.7-147.2-17.3-147.2-17.3c-167.5-24.1-291.3-29.2-384.3-22.9c44.7,43.1,161.7,147.2,205.9,180.4
			c53.8,40.3,336.4,60.1,478.7,60C3471.2,1209.4,3591.4,1160.1,3626.4,1118z"/>
	</g>
</g>
<path d="M4363.5,1037.3c0,0-72.8-2.6-236.5,31.1c-163.6,33.6-310.5,73.8-386.7,107.4c0,0,286.5-10.2,386.7-32.6
	C4227.1,1120.8,4363.5,1037.3,4363.5,1037.3z"/>
<path class="st2" d="M1058.1,119.6c0,0-28.1,55.5-56.2,172.3c-28.1,116.8-37.6,217.2-37.6,217.2l96.3,19.7c0,0,3.9-110.1,19.8-224.9
	c15.9-114.8,36.6-183,36.6-183L1058.1,119.6z"/>
<g>
	<path class="st8" d="M2909.5,1476.9c112.1,6.4,437.8,4.1,590.3,31.9s155.4,46.4,203.3,37.8c47.9-8.5,276.2-48.3,424-80.3
		c231.7-50.2,265.3-93.2,283.5-116.5c-20.4,55.4-21.5,95.2-30.5,120.6c-9,25.4-113.3,70.6-253,111.8
		c-94.6,27.9-368.7,99.4-465.9,100.9s-449.8,12-560.4,0C2990.2,1671.2,2918.4,1626.4,2909.5,1476.9z"/>
	<path class="st9" d="M3100.8,1683.2c110.6,12,463.3,1.5,560.4,0s371.3-72.9,465.9-100.9c139.7-41.3,244.1-86.4,253-111.8
		c4.8-13.5,7.4-31.1,11.8-52.9c-51.7,35.1-125.8,63.1-264.8,91.6c-217.3,44.6-513.7,112-655.7,108.2c-61.2-1.6-328.7,1.5-475.6-9
		c-22.1-1.6-34,3.5-38.6,12.8C2990.6,1659.9,3039.7,1676.6,3100.8,1683.2z"/>
	<g>
		<path class="st10" d="M3148.4,1483.7c-99-2.8-189.6-3.9-238.9-6.7c9,149.4,80.7,194.3,191.3,206.2c20.6,2.2,49.5,3.7,83.7,4.5
			L3148.4,1483.7z"/>
	</g>
	
		<linearGradient id="SVGID_6_" gradientUnits="userSpaceOnUse" x1="3436.5339" y1="1146.9373" x2="3630.8081" y2="1237.5294" gradientTransform="matrix(1 0 0 -1 0 2776)">
		<stop  offset="0.1793" style="stop-color:#404040"/>
		<stop  offset="1" style="stop-color:#808080"/>
	</linearGradient>
	<path class="st11" d="M3373.6,1494.1c0,0,78.6,130.7,90.7,148.3c12.1,17.6,191.4,35.7,221.1,34.4c22.5-1-59.6-127.6-74.3-143.1
		C3592,1526.5,3461.8,1497.3,3373.6,1494.1z"/>
</g>
<path class="st12" d="M1076.2,96.6c-275.3,5.9-497,72.5-594.3,158.4c-65.8,58.1-39.2,116.6,29,143.5
	c128.8,47.4,348,117.3,503.8,149.6c236,49,577.4,95.1,800.5,105.3c-6.8-45.7-172.2-298-372.3-437.6
	C1332.7,139.1,1204.7,93.8,1076.2,96.6z"/>
<g>
	<path class="st3" d="M1043.2,627.4c0,0,97.8,20.2,119,25.7c23.7,6.2,28.7,40.7,28.7,40.7s-117.1-19.7-136.2-24.1
		C1035.4,665.3,1043.2,627.4,1043.2,627.4z"/>
	<path class="st3" d="M413.8,541.7c0,0,83.4,11.1,102.1,15.4C536,561.7,541,593,541,593s-100.9-16.5-117.5-20.5
		C406.9,568.5,413.8,541.7,413.8,541.7z"/>
</g>
<path class="st13" d="M58.1,441c14.5,0.3,130.7-2.9,187.1,7.3c162.4,29.5,442.1,126,442.1,126S345.2,446,336.1,378.3
	C272,426,58.1,441,58.1,441z"/>
<path class="st13" d="M514.7,1116.4c0,0,84.1-39.2,163.6-21.3c79.6,18,1097.3,297,1097.3,297L514.7,1116.4z"/>
<g>
	
		<radialGradient id="SVGID_7_" cx="4323.9814" cy="1890.672" r="82.5022" gradientTransform="matrix(1 0 0 -1 0 2776)" gradientUnits="userSpaceOnUse">
		<stop  offset="0" style="stop-color:#FFFFFF"/>
		<stop  offset="1" style="stop-color:#EBEBEB"/>
	</radialGradient>
	<path class="st14" d="M4323.6,969.6c16,7.9,40.1,29.8,45.8,15c5.3-13.5,6.8-36.3,6.9-56.8c-26.4-50.7-62.4-100.1-98.8-140.5
		c-1.9-2.1-3.9-4.1-6-6.2c2.3,28.8,6.9,69.3,15.7,103.3C4294,910.2,4308.9,941.8,4323.6,969.6z"/>
</g>
<g>
	<path class="st12" d="M510.8,398.5c-50.3,31-147.4,43.1-165,59.3c-18.8,17.2-14.4,47.8-11.2,124c4.5,108.3,82.2,258.5,112.1,310.8
		c29.9,52.3,95.2,140.3,109.1,168.9c11.3,23.1,9,52.3,9,64.3s78.5,107.6,89.7,130c28.8,6.5,1135.8,257,1135.8,257
		s-7.5-55.3-7.5-74.7c0-19.4,7.5-28.4,7.5-59.8c0-31.4-35.9-168.9-35.9-300.4s16.4-275,35.9-328.8c12-33.1,26.2-63.4,24.9-95.7
		c-223.1-10.1-564.5-56.3-800.5-105.3C858.8,515.8,639.6,445.9,510.8,398.5z"/>
	<path class="st12" d="M1007.8,546.8c-18.2,40.3-42.3,106-49.5,183c-12,128.5,25.9,363.2,27.8,396c3.2,54-18.1,79.4-18.1,107.8
		s20.2,96.9,20.2,96.9"/>
</g>
<path class="st15" d="M4363.5,1037.3c0,0-13.6-20.8-29.7-49.2c-62.2-83-136.7-175.9-187.8-218.1c-54.8-45.2-148.2-103.8-223.7-148.7
	c-64.5-18.4-127-33.3-178.3-44c-175.6-36.6-356.4-64.3-510.4-147.2c25.4,23.9,119.4,74,93,82.3c-62.3,19.4-238.6,26.9-483.7,55.2
	c-302.8,35-716.4,45.7-766.9,50c0,0,3.9,6.4,12.2,8.6S2596.4,721,2861.6,788c141.2,35.7,537.8,216.6,779,336
	c30.4,13.1,59.1,27.3,85.2,42.9c5.5,2.8,10.8,5.6,16,8.3c76.6-33.5,223.7-73.5,386.3-107C4291.8,1034.6,4363.5,1037.3,4363.5,1037.3
	z"/>
<g>
	<g>
		<defs>
			<path id="SVGID_8_" d="M4277.6,787.3c-7.3-8.1-16-16-25.8-23.9l-987.7,80.3l-723.8-250c-230.7,15.1-442.5,20.9-467,24.2
				c-93.9,12.4-220.6-112.1-345.9-237.9v502.1l649.3,223.3l115.9,413.9l1831.1-230.7l92.7-245.1C4405,958,4341.9,858.7,4277.6,787.3
				z"/>
		</defs>
		<clipPath id="SVGID_9_">
			<use xlink:href="#SVGID_8_"  style="overflow:visible;"/>
		</clipPath>
		<g class="st16">
			<path class="st12" d="M3043.2,992c0,0-35.1-52.6-215.2-118.8c-178.8-65.8-636.6-127.8-723.3-159
				c-43.4-15.6-79.5-67.3-102.6-111.1"/>
			<path class="st12" d="M4271.1,774.8c2.3,28.8,7.4,75.6,16.2,109.6c15.7,60.5,76.2,152.9,76.2,152.9s-71.7-2.7-235.4,30.9
				c-162.6,33.4-309.7,73.4-386.3,107c0,0-0.8,0.3-1.5,0.7c-121.5-76.6-282.2-114.9-366.7-133.5c-66.4-14.6-330.4-50.3-330.4-50.3
				c-208.2-29.9-348.9-30.5-446.8-16.5c-41.3,5.9-75,14.4-102.9,24.5c-27.6,11.4-51.8,25.2-71.2,37.8"/>
			<path class="st12" d="M4323.6,969.6c16,7.9,40.1,29.8,45.8,15c8.5-21.7,7.1-67.6,6.3-88.9"/>
			<path class="st12" d="M2658.9,969.1c44.7,43.1,161.7,147.2,205.9,180.4c53.8,40.3,336.4,60.1,478.7,60
				c127.6-0.1,247.7-49.4,282.8-91.4"/>
		</g>
	</g>
</g>
</svg>
