<?xml version="1.0" encoding="utf-8"?>
<!-- Generator: Adobe Illustrator 25.2.1, SVG Export Plug-In . SVG Version: 6.00 Build 0)  -->
<svg version="1.1" id="scooter" xmlns="http://www.w3.org/2000/svg" xmlns:xlink="http://www.w3.org/1999/xlink" x="0px" y="0px"
	 viewBox="0 0 1701.6 2776.2" style="enable-background:new 0 0 1701.6 2776.2;" xml:space="preserve">
<style type="text/css">
	.st0{fill:#474747;}
	.st1{fill:#0E0E0E;}
	.st2{fill:#1C1C1C;}
	.st3{fill:#797979;}
	.st4{fill:#A6A4A4;}
	.st5{fill:#8A8A8A;}
	.st6{fill:#333333;}
	.st7{fill:#636363;}
	.st8{fill:#363636;}
	.st9{fill:#F0F0F0;}
	.st10{fill:#666666;}
	.st11{fill:url(#SVGID_1_);}
</style>
<polygon class="st0" points="1111.8,101.4 1108.7,105.1 1161.5,118.3 1164.7,108.7 "/>
<polygon class="st1" points="1320.5,2075.2 1204.2,2075.2 1039.2,2490.3 1062.6,2520.7 1214,2496.9 "/>
<path class="st2" d="M37,2142.9l65.6-9.5l112.6-100.8l-96.3-4.1C118.9,2028.5,44.5,2104,37,2142.9z"/>
<ellipse class="st1" cx="226.7" cy="2240.6" rx="192.6" ry="255.8"/>
<ellipse class="st3" cx="184.9" cy="2240.6" rx="150.9" ry="200.3"/>
<ellipse class="st4" cx="176.2" cy="2240.6" rx="115" ry="172.1"/>
<ellipse class="st5" cx="154.5" cy="2240.6" rx="53.2" ry="79.5"/>
<path class="st2" d="M1175.8,2405l-8.7,53.8l42.3-8.5c0,0,19.9-133.7,49.9-158.6c29.9-24.9,24.7-56.5,24.7-56.5l-68.5,47.4
	L1175.8,2405z"/>
<ellipse class="st1" cx="1422.2" cy="2467.4" rx="232.6" ry="308.8"/>
<ellipse class="st3" cx="1371.7" cy="2467.4" rx="182.2" ry="241.9"/>
<ellipse class="st4" cx="1361.2" cy="2467.4" rx="138.9" ry="207.9"/>
<ellipse class="st5" cx="1346.5" cy="2467.4" rx="75.7" ry="113.2"/>
<path class="st0" d="M1391.3,2142c96.1,0,142.7,40.8,165.3,53.3s15.3,34.7-10.8,48.7c-26,14-53.8,14.4-80.3-2.9
	s-77.4-43.8-144.5-19.7c-117.3,42.1-140.8,185.3-154,237.4C1160.9,2408.4,1207.1,2142.1,1391.3,2142z"/>
<path class="st0" d="M418.5,2205.8c0,3.8-3.4,39.2-89.1,33.8c-4.8-71.7-27.9-190.1-164.6-201.5c-70-5.8-122.3,94.8-127.7,104.8
	c5-30.6,57.7-186.2,198.5-173.3C361.3,1981.1,419.3,2143.5,418.5,2205.8z"/>
<path class="st6" d="M1354.4,2450.8c7.7,29.4,1.1,72.5-46.3,82.8s-54.1-47.2-58.7-74.5c-4.7-27.3-20.3-113-27.1-164.9
	s1.4-154.4,55.7-171.4c54.3-17,139.7-25.4,153.2-25.4c47.4,0,70.6,57.5,70.6,66.6c-20.9-7-62-24.5-103.8-14.5
	c-37,8.8-77.4,48.7-70.7,143.6C1331.7,2354.7,1346.7,2421.5,1354.4,2450.8z"/>
<g>
	
		<ellipse transform="matrix(0.1902 -0.9817 0.9817 0.1902 919.4421 1506.2196)" class="st7" cx="1372.7" cy="195.8" rx="43" ry="23"/>
</g>
<ellipse transform="matrix(0.1902 -0.9817 0.9817 0.1902 917.3382 1503.3938)" class="st8" cx="1370" cy="195.6" rx="37.6" ry="20.1"/>
<ellipse transform="matrix(0.1902 -0.9817 0.9817 0.1902 639.3766 969.2462)" class="st7" cx="907.2" cy="97.1" rx="37.9" ry="20.3"/>
<ellipse transform="matrix(0.1902 -0.9817 0.9817 0.1902 675.5624 1040.7507)" class="st1" cx="968.7" cy="110.9" rx="43.1" ry="23"/>
<ellipse transform="matrix(0.9999 -1.070046e-02 1.070046e-02 0.9999 -2.5373 12.7592)" class="st9" cx="1191.1" cy="243.5" rx="23" ry="33.7"/>
<polygon class="st1" points="1320.5,2075.2 1204.2,2075.2 1039.2,2490.3 1062.6,2520.7 1214,2496.9 "/>
<path class="st2" d="M37,2142.9l65.6-9.5l112.6-100.8l-96.3-4.1C118.9,2028.5,44.5,2104,37,2142.9z"/>
<ellipse class="st1" cx="226.7" cy="2240.6" rx="192.6" ry="255.8"/>
<ellipse class="st3" cx="184.9" cy="2240.6" rx="150.9" ry="200.3"/>
<path class="st4" d="M176.2,2068.5c-63.5,0-115,77.1-115,172.1s51.5,172.1,115,172.1s115-77.1,115-172.1S239.7,2068.5,176.2,2068.5z
	 M154.5,2320.2c-29.4,0-53.2-35.6-53.2-79.5s23.8-79.5,53.2-79.5s53.2,35.6,53.2,79.5C207.7,2284.6,183.9,2320.2,154.5,2320.2z"/>
<path class="st2" d="M1175.8,2405l-8.7,53.8l42.3-8.5c0,0,19.9-133.7,49.9-158.6c29.9-24.9,24.7-56.5,24.7-56.5l-68.5,47.4
	L1175.8,2405z"/>
<ellipse class="st1" cx="1422.2" cy="2467.4" rx="232.6" ry="308.8"/>
<ellipse class="st3" cx="1371.7" cy="2467.4" rx="182.2" ry="241.9"/>
<path class="st4" d="M1361.2,2259.5c-76.7,0-138.9,93.1-138.9,207.9c0,114.8,62.2,207.9,138.9,207.9c76.7,0,138.9-93.1,138.9-207.9
	C1500.1,2352.6,1437.9,2259.5,1361.2,2259.5z M1346.5,2580.6c-41.8,0-75.7-50.7-75.7-113.2s33.9-113.2,75.7-113.2
	c41.8,0,75.7,50.7,75.7,113.2C1422.2,2529.9,1388.3,2580.6,1346.5,2580.6z"/>
<path class="st10" d="M1068.7,2419.7l-1046-195.1l-9.4-7.4c0,0,3-1.9,10.1-3.4c5-1.1,49.2-7.4,66.9-10c4.8-0.7,9.7-0.7,14.6,0.1
	l225.1,35.8l0.7-64.6l826.8,132.1L1068.7,2419.7z"/>
<path class="st0" d="M1391.3,2142c96.1,0,142.7,40.8,165.3,53.3s15.3,34.7-10.8,48.7c-26,14-53.8,14.4-80.3-2.9
	s-77.4-43.8-144.5-19.7c-117.3,42.1-140.8,185.3-154,237.4C1160.9,2408.4,1207.1,2142.1,1391.3,2142z"/>
<path class="st0" d="M418.5,2205.8c0,3.8-3.4,39.2-89.1,33.8c-4.8-71.7-27.9-190.1-164.6-201.5c-70-5.8-122.3,94.8-127.7,104.8
	c5-30.6,57.7-186.2,198.5-173.3C361.3,1981.1,419.3,2143.5,418.5,2205.8z"/>
<path class="st6" d="M1354.4,2450.8c7.7,29.4,1.1,72.5-46.3,82.8s-54.1-47.2-58.7-74.5c-4.7-27.3-20.3-113-27.1-164.9
	s1.4-154.4,55.7-171.4c54.3-17,139.7-25.4,153.2-25.4c47.4,0,70.6,57.5,70.6,66.6c-20.9-7-62-24.5-103.8-14.5
	c-37,8.8-77.4,48.7-70.7,143.6C1331.7,2354.7,1346.7,2421.5,1354.4,2450.8z"/>
<g>
	<path class="st1" d="M1686.8,218L1686.8,218L1381,153.1l-16.5,84.4l305,64.9v0c0.4,0.1,0.7,0.2,1.1,0.2c12.7,1.2,26.2-16.9,30-40.3
		C1704.2,240.2,1698.1,221.2,1686.8,218z"/>
	
		<ellipse transform="matrix(0.1902 -0.9817 0.9817 0.1902 919.4421 1506.2196)" class="st7" cx="1372.7" cy="195.8" rx="43" ry="23"/>
</g>
<linearGradient id="SVGID_1_" gradientUnits="userSpaceOnUse" x1="1194.3643" y1="1632.9097" x2="1337.8115" y2="1647.9862" gradientTransform="matrix(1 0 0 -1 0 2776)">
	<stop  offset="0" style="stop-color:#1A1A1A"/>
	<stop  offset="0.245" style="stop-color:#4D4D4D"/>
	<stop  offset="0.6355" style="stop-color:#999999"/>
	<stop  offset="1" style="stop-color:#4D4D4D"/>
</linearGradient>
<path class="st11" d="M1433.7,2103.1L1233.5,135.6l-136.9,13.9l200.2,1968.1c1,10,32.5,15.1,70.3,11.2c37.8-3.9,67.7-15.1,66.6-25.1
	C1433.8,2103.5,1433.7,2103.3,1433.7,2103.1z"/>
<ellipse transform="matrix(0.1902 -0.9817 0.9817 0.1902 639.3766 969.2462)" class="st7" cx="907.2" cy="97.1" rx="37.9" ry="20.3"/>
<path class="st8" d="M1378.2,158.5l0-0.1L915.2,59.6l-15.6,74.2l101.2,21.5l-11.9,18.5c-3,4.7-8.4,7.5-13.9,7.2l-208-9.9
	c-12.7-0.6-15.2,25.7,2.5,26c15.3,0.2,206.6,15.6,259.5,19.8c8.3,0.7,16.2-3.3,20.7-10.3l22.9-36.1l289,61.2
	c0.8,0.3,1.6,0.5,2.5,0.6c11.1,1.1,22.8-14.7,26.2-35.2C1393.3,177.9,1388,161.3,1378.2,158.5z"/>
<path class="st1" d="M978,68.4l0-0.2L656.2,0l-17.9,85l320.6,67.3c0.9,0.3,1.8,0.5,2.8,0.7c12.7,1.2,26.2-16.9,30-40.3
	C995.4,90.6,989.3,71.7,978,68.4z"/>
<ellipse transform="matrix(0.1902 -0.9817 0.9817 0.1902 481.9902 670.0593)" class="st7" cx="647.2" cy="42.9" rx="43.3" ry="23.2"/>
<path class="st0" d="M1111.7,101.5c0,0,18.7,3.7,26.8,5.7c10.7,2.6,16.8,24.9,13.6,43.1s-23.3,32.1-23.3,32.1l7.5,88.4
	c0,0,16.5,30.1,57.8,35c43.4,5.2,42.1-28.8,42.1-28.8l-6.4-73.7c0,0,19.3-17.5,22.3-37c3.7-24.6-2-46.6-11.5-49
	c-8.9-2.2-79.3-17.8-100.2-21.7C1122.4,92.2,1111.7,101.5,1111.7,101.5z"/>
<ellipse transform="matrix(0.997 -7.740001e-02 7.740001e-02 0.997 -15.3196 92.9328)" class="st9" cx="1191.2" cy="244.1" rx="23" ry="33.7"/>
<path class="st6" d="M1436.8,2086.3c0-0.2,0.1-0.4,0-0.7c0-0.2-0.1-0.4-0.2-0.6l-14.2-139.8h-0.1c0-0.2,0-0.4,0-0.6
	c-0.3-3.1-2.5-5.6-5.6-7.5l0.9,8.3h0c0,6.6-24.1,18.7-67.2,23c-18.8,1.9-36.7,1.8-50.3-0.4c-11.6-1.8-17.3-4.8-19.3-7.3l-1-10.4
	c0,0-72.9,33.4-86.6,39.5s-32.9,17.6-39.2,37l-118.6,366.7c-3,9.1-12.2,14.8-21.7,13.2L22.7,2216.4c-1.3-0.2-2.3-0.4-3.7-0.5
	c-10.5-1.3-19,16.4-19,40c0,24,8.7,45.1,19.5,47.1c0,0,999.9,213.1,1024.1,217.4c24.5,4.4,62.7-9.5,76.2-55.1
	c13.5-45.6,96.3-326.5,96.3-326.5c4.4-14.6,17.2-25.2,32.4-26.8l47.4-3.3c4.1,2.3,10,4.1,17.8,5.4c7.5,1.2,16.2,1.8,25.6,1.8
	c8.2,0,17-0.5,26-1.4c33.5-3.4,68.4-13.6,71.4-26.3l0.3,0L1436.8,2086.3z"/>
</svg>
